<mxfile host="app.diagrams.net" modified="2021-03-18T22:43:48.694Z" agent="5.0 (Windows NT 10.0; Win64; x64) AppleWebKit/537.36 (KHTML, like Gecko) Chrome/89.0.4389.90 Safari/537.36" etag="tkH2ii7s4B6we-qeZ6Ba" version="14.4.9" type="github">
  <diagram id="f-yjLfBE-pi1WNy1D7Hq" name="Page-1">
    <mxGraphModel dx="1332" dy="506" grid="1" gridSize="10" guides="1" tooltips="1" connect="1" arrows="1" fold="1" page="1" pageScale="1" pageWidth="850" pageHeight="1100" math="0" shadow="0">
      <root>
        <mxCell id="0" />
        <mxCell id="1" parent="0" />
        <mxCell id="U3XRHfoVxHxI1wYGBbAn-8" value="" style="edgeStyle=orthogonalEdgeStyle;rounded=0;orthogonalLoop=1;jettySize=auto;html=1;" edge="1" parent="1" source="U3XRHfoVxHxI1wYGBbAn-1" target="U3XRHfoVxHxI1wYGBbAn-7">
          <mxGeometry relative="1" as="geometry" />
        </mxCell>
        <mxCell id="U3XRHfoVxHxI1wYGBbAn-1" value="Melon Page with multiple melons&lt;br&gt;&lt;br&gt;url(/melons)" style="rounded=0;whiteSpace=wrap;html=1;" vertex="1" parent="1">
          <mxGeometry x="340" y="20" width="120" height="160" as="geometry" />
        </mxCell>
        <mxCell id="U3XRHfoVxHxI1wYGBbAn-4" value="" style="edgeStyle=orthogonalEdgeStyle;rounded=0;orthogonalLoop=1;jettySize=auto;html=1;" edge="1" parent="1" source="U3XRHfoVxHxI1wYGBbAn-2" target="U3XRHfoVxHxI1wYGBbAn-1">
          <mxGeometry relative="1" as="geometry" />
        </mxCell>
        <mxCell id="U3XRHfoVxHxI1wYGBbAn-2" value="Home Page&lt;br&gt;url(/)&amp;nbsp;" style="rounded=0;whiteSpace=wrap;html=1;" vertex="1" parent="1">
          <mxGeometry x="70" y="90" width="160" height="60" as="geometry" />
        </mxCell>
        <mxCell id="U3XRHfoVxHxI1wYGBbAn-3" value="" style="whiteSpace=wrap;html=1;aspect=fixed;" vertex="1" parent="1">
          <mxGeometry x="70" y="210" width="160" height="160" as="geometry" />
        </mxCell>
        <mxCell id="U3XRHfoVxHxI1wYGBbAn-7" value="" style="rounded=0;whiteSpace=wrap;html=1;" vertex="1" parent="1">
          <mxGeometry x="520" y="90" width="120" height="60" as="geometry" />
        </mxCell>
      </root>
    </mxGraphModel>
  </diagram>
</mxfile>
